<?xml version="1.0" encoding="utf-8"?>
<!-- Generator: Adobe Illustrator 21.0.1, SVG Export Plug-In . SVG Version: 6.00 Build 0)  -->
<svg version="1.1" id="Layer_1" xmlns="http://www.w3.org/2000/svg" xmlns:xlink="http://www.w3.org/1999/xlink" x="0px" y="0px"
	 viewBox="0 0 140.2 140.2" style="enable-background:new 0 0 140.2 140.2;" xml:space="preserve">
<style type="text/css">
	.st0{fill:#FFFFFF;}
</style>
<g>
	<path class="st0" d="M22.8,138.8c-11.8,0-21.4-9.6-21.4-21.4V22.8C1.4,11,11,1.4,22.8,1.4h94.6c11.8,0,21.4,9.6,21.4,21.4v94.6
		c0,11.8-9.6,21.4-21.4,21.4H22.8z"/>
	<path d="M117.4,2.8c11,0,20,9,20,20v94.6c0,11-9,20-20,20H22.8c-11,0-20-9-20-20V22.8c0-11,9-20,20-20H117.4 M117.4,0H22.8
		C10.2,0,0,10.2,0,22.8v94.6c0,12.6,10.2,22.8,22.8,22.8h94.6c12.6,0,22.8-10.2,22.8-22.8V22.8C140.2,10.2,130,0,117.4,0L117.4,0z"
		/>
</g>
<g>
	<g>
		<path class="st0" d="M90.1,113.5v-2.1c0-2.3-1.2-4.9-3.7-7.7l-29-33.5c-2.9,1.8-4.2,3.9-4.2,6.5c0,1.3,0.3,2.5,1,3.6
			c0.5,1,2.4,3.6,8.2,10.7l0.1,0.1l0,0.1c2.5,3.7,3.8,7.5,3.8,11.5c0,8.4-5,9.6-8,9.6H39.7v-6.3l1.5-0.5c2.7-0.8,2.7-2.2,2.7-2.8
			c0-0.4-0.3-2.3-3.8-11.7l0-0.1c-1-3-1.5-5.7-1.5-7.9c0-7.9,4.2-14.6,12.4-19.9l-6.4-7.2C40.5,51,38.4,46,38.4,41
			c0-4.8,2-9.4,5.9-13.6l0.6-0.7h5.2v2.1c0,2.7,1.2,5.5,3.7,8.4l22.9,26.2c1-3,2.6-6.3,4.7-9.7c-6.3-2.2-9.5-7.2-9.5-14.5
			c0-4.4,1.2-8.4,3.7-11.7l0.6-0.9h4.5l0.3,1.8c0.2,1.1,0.9,2.8,4.6,3.7l6,1.4c3.2,0.8,5.7,2.2,7.4,4.1c1.8,2,2.7,5,2.7,9.1
			c0,2.6-0.3,4.7-0.9,6.3l-0.4,1l-1,0.3c-2.2,0.7-4.9,1.1-7.8,1.2c-0.8,1.3-1.6,2.7-2.4,4.4l-0.9,1.7c-1.4,2.8-2.1,5.6-2.1,8.2
			c0,3,1,5.5,3,7.8l6.5,7.5c4.1,4.7,6.2,9.7,6.2,14.8c0,5-2,9.3-6,13l-0.6,0.6H90.1z"/>
		<path d="M78.8,28.9c0.4,2.7,2.5,4.5,6.2,5.4l6,1.4c2.8,0.7,4.9,1.8,6.3,3.4c1.4,1.6,2.1,4.1,2.1,7.6c0,2.3-0.3,4.2-0.8,5.6
			c-2.3,0.7-5.1,1.1-8.4,1.1c-1.1,1.5-2.1,3.4-3.2,5.6l-0.9,1.6c-1.6,3.2-2.4,6.3-2.4,9.2c0,3.5,1.2,6.6,3.6,9.2l6.5,7.5
			c3.8,4.4,5.7,8.8,5.7,13.4c0,4.4-1.8,8.1-5.3,11.4h-2.1c0-2.8-1.4-5.8-4.2-9.1L57.8,67.5c-4.6,2.3-6.8,5.3-6.8,9.2
			c0,1.6,0.4,3.2,1.3,4.7c0.8,1.5,3.6,5.1,8.4,11c2.3,3.3,3.4,6.8,3.4,10.3c0,5-2,7.5-5.9,7.5H41.8v-2.6c2.8-0.8,4.2-2.5,4.2-4.9
			c0-1.3-1.3-5.4-4-12.5c-0.9-2.8-1.4-5.2-1.4-7.2c0-7.8,4.5-14.3,13.5-19.4l-8-9.1c-3.8-4.4-5.7-8.8-5.7-13.4
			c0-4.3,1.8-8.3,5.3-12.1H48c0,3.2,1.4,6.5,4.2,9.8l25.5,29.2c0.9-4.5,3.2-9.6,7-15.4C77.5,51.1,74,46.7,74,39.3
			c0-4,1.1-7.5,3.3-10.4H78.8 M82.5,24.6h-3.6h-1.6h-2.2l-1.3,1.7c-2.7,3.7-4.1,8.1-4.1,12.9c0,7.3,3,12.6,8.6,15.5
			c-0.9,1.6-1.7,3.1-2.3,4.7L55.4,35.9c-2.1-2.5-3.2-4.8-3.2-7v-4.3H48h-2.1H44L42.8,26c-4.3,4.6-6.5,9.6-6.5,15
			c0,5.6,2.3,11,6.7,16.2l4.8,5.4C40.2,68,36.4,74.9,36.4,82.8c0,2.5,0.5,5.3,1.6,8.5l0,0.1l0,0.1c3.2,8.4,3.6,10.6,3.7,11.1
			c0,0.1,0,0.1,0,0.1c0,0,0,0,0,0c0,0-0.3,0.3-1.2,0.5l-3,0.9v3.2v2.6v4.3h4.3h16.3c2.4,0,10.1-0.8,10.1-11.7
			c0-4.4-1.4-8.6-4.2-12.7L64,89.8l-0.1-0.1c-6-7.4-7.6-9.7-8-10.4c-0.5-0.8-0.7-1.7-0.7-2.6c0-0.6,0-2,1.8-3.6l27.8,32
			c2.1,2.4,3.2,4.6,3.2,6.3v4.3h4.3h2.1H96l1.2-1.1c4.5-4.1,6.7-8.9,6.7-14.5c0-5.6-2.3-11-6.7-16.2l-6.5-7.5l0,0l0,0
			c-1.7-1.9-2.5-4-2.5-6.4c0-2.3,0.6-4.7,1.9-7.3l0.8-1.5l0.1-0.1l0-0.1c0.6-1.2,1.2-2.3,1.7-3.2c2.7-0.2,5.1-0.6,7.3-1.2l1.9-0.6
			l0.7-1.9c0.7-1.9,1.1-4.2,1.1-7.1c0-4.6-1.1-8.1-3.2-10.5c-2-2.2-4.8-3.8-8.4-4.7l0,0l0,0l-6-1.4c-2.8-0.7-2.9-1.6-3-1.9
			L82.5,24.6L82.5,24.6z"/>
	</g>
</g>
</svg>
